<?xml version="1.0" encoding="UTF-8"?>
<svg id="Layer_1" xmlns="http://www.w3.org/2000/svg" version="1.1" viewBox="0 0 1547.4 472.1">
  <defs>
    <style>
      .st0 { fill: #231f20; }
      .st1 { fill: #26acf7; }
    </style>
  </defs>
  <path class="st0" d="M85.4,61h98.7v120.8l103.4-120.8h131.3l-116.6,120.6,121.8,198.9h-121.6l-67.4-131.4-51,53.4v78h-98.7V61Z"/>
  <path class="st0" d="M384.5,221c0-52.2,14.5-92.8,43.6-121.9s69.5-43.6,121.4-43.6,94.2,14.3,122.9,42.8c28.8,28.6,43.2,68.6,43.2,120s-6.3,68-18.9,91.9c-12.6,23.9-30.7,42.5-54.5,55.8s-53.4,19.9-88.8,19.9-65.9-5.7-89.5-17.2c-23.6-11.5-42.8-29.6-57.4-54.5-14.7-24.8-22-55.9-22-93.3ZM483.3,221.4c0,32.3,6,55.4,18,69.5,12,14.1,28.3,21.1,48.9,21.1s37.6-6.9,49.3-20.7c11.6-13.8,17.4-38.6,17.4-74.3s-6.1-52.1-18.2-65.9c-12.1-13.9-28.6-20.8-49.4-20.8s-35.9,7.1-48,21.1c-12.1,14.1-18.1,37.4-18.1,70Z"/>
  <path class="st0" d="M707,274.8l93.9-5.9c2,15.3,6.2,26.9,12.4,34.9,10.2,12.9,24.7,19.4,43.6,19.4s25-3.3,32.6-9.9c7.6-6.6,11.4-14.3,11.4-23s-3.6-15.7-10.9-22.2c-7.3-6.5-24.1-12.7-50.6-18.5-43.3-9.7-74.2-22.7-92.6-38.8-18.6-16.1-27.9-36.7-27.9-61.7s4.8-31.9,14.3-46.5c9.5-14.6,23.8-26.1,42.9-34.4,19.1-8.4,45.3-12.5,78.6-12.5s72,7.6,93.4,22.8c21.4,15.2,34.2,39.3,38.3,72.5l-93.1,5.4c-2.5-14.4-7.7-24.8-15.6-31.4-7.9-6.5-18.9-9.8-32.8-9.8s-20.1,2.4-25.9,7.3c-5.8,4.9-8.7,10.8-8.7,17.8s2.4,9.7,7.2,13.7c4.6,4.2,15.7,8.1,33.1,11.8,43.2,9.3,74.1,18.7,92.8,28.2,18.7,9.5,32.3,21.3,40.8,35.4,8.5,14.1,12.8,29.9,12.8,47.3s-5.7,39.4-17,56.7c-11.3,17.3-27.2,30.4-47.5,39.3-20.3,8.9-46,13.4-76.9,13.4-54.4,0-92-10.5-112.9-31.4s-32.8-47.5-35.5-79.8Z"/>
  <path class="st1" d="M1005.9,61h99v319.6h-99V61Z"/>
  <path class="st1" d="M1414.8,333.9c12.3,8.6,20.4,14,24.2,16.1,5.7,3.2,13.3,6.9,22.9,11.1l-27.5,55.4c-13.8-6.7-27.5-14.6-41-23.9-13.5-9.2-23-16.2-28.3-20.8-21.8,9.4-49.1,14.2-82,14.2-48.5,0-86.8-12.6-114.9-37.9-33.1-29.9-49.7-72-49.7-126.2s14.5-93.5,43.5-122.6c29-29.1,69.5-43.7,121.5-43.7s94,14.2,122.8,42.7c28.8,28.5,43.3,69.2,43.3,122.3s-11.6,85-34.9,113.3ZM1339.2,283.3c7.8-14.1,11.8-35.2,11.8-63.2s-6-55.3-18-69.1c-12-13.8-28.5-20.7-49.6-20.7s-35.5,7.1-47.7,21.1c-12.2,14.1-18.3,36.1-18.3,66s6,59.4,17.9,73.5c11.9,14.1,28.3,21.1,49,21.1s13-.7,19-2c-8.3-8-21.4-15.5-39.2-22.7l15.5-35.5c8.7,1.6,15.5,3.6,20.4,5.9,4.9,2.3,14.3,8.4,28.4,18.3,3.3,2.3,7,4.7,10.9,7.2Z"/>
</svg>